<mxfile host="app.diagrams.net" modified="2023-04-06T04:00:10.440Z" agent="Mozilla/5.0 (Windows NT 10.0; Win64; x64) AppleWebKit/537.36 (KHTML, like Gecko) Chrome/99.0.4844.84 Safari/537.36 HBPC/12.1.2.300" version="21.1.4" etag="l7X6cWkQe7jT4bDRsD9s" type="github">
  <diagram name="第 1 页" id="wpqCCzxms05R_NE-LEmj">
    <mxGraphModel>
      <root>
        <mxCell id="0" />
        <mxCell id="1" parent="0" />
      </root>
    </mxGraphModel>
  </diagram>
</mxfile>
